<svg width="20" height="20" viewBox="0 0 20 20" fill="none" xmlns="http://www.w3.org/2000/svg">
<path d="M7.08328 15.8333H2.29172C1.02753 15.8333 0 14.8059 0 13.5417V3.95828C0 2.69409 1.02753 1.66672 2.29172 1.66672H14.375C15.6392 1.66672 16.6667 2.69409 16.6667 3.95828V7.29172C16.6667 7.63672 16.3867 7.91672 16.0417 7.91672C15.6967 7.91672 15.4167 7.63748 15.4167 7.29172V3.95828C15.4167 3.38409 14.9492 2.91672 14.375 2.91672H2.29172C1.71753 2.91672 1.25 3.38409 1.25 3.95828V13.5417C1.25 14.1159 1.71753 14.5833 2.29172 14.5833H7.08328C7.42828 14.5833 7.70828 14.8633 7.70828 15.2083C7.70828 15.5533 7.42828 15.8333 7.08328 15.8333V15.8333Z" fill="black"/>
<path d="M16.0417 6.25H0.625C0.279999 6.25 0 5.97 0 5.625C0 5.28 0.279999 5 0.625 5H16.0417C16.3867 5 16.6667 5.28 16.6667 5.625C16.6667 5.97 16.3867 6.25 16.0417 6.25Z" fill="black"/>
<path d="M3.95828 4.58328C3.61328 4.58328 3.33328 4.30328 3.33328 3.95828V0.625C3.33328 0.279999 3.61328 0 3.95828 0C4.30328 0 4.58328 0.279999 4.58328 0.625V3.95828C4.58328 4.30328 4.30328 4.58328 3.95828 4.58328Z" fill="black"/>
<path d="M12.7083 4.58328C12.3633 4.58328 12.0833 4.30328 12.0833 3.95828V0.625C12.0833 0.279999 12.3633 0 12.7083 0C13.0533 0 13.3333 0.279999 13.3333 0.625V3.95828C13.3333 4.30328 13.0533 4.58328 12.7083 4.58328Z" fill="black"/>
<path d="M14.5833 20C11.5967 20 9.16672 17.57 9.16672 14.5833C9.16672 11.5967 11.5967 9.16672 14.5833 9.16672C17.57 9.16672 20 11.5967 20 14.5833C20 17.57 17.57 20 14.5833 20V20ZM14.5833 10.4167C12.2858 10.4167 10.4167 12.2858 10.4167 14.5833C10.4167 16.8808 12.2858 18.75 14.5833 18.75C16.8808 18.75 18.75 16.8808 18.75 14.5833C18.75 12.2858 16.8808 10.4167 14.5833 10.4167V10.4167Z" fill="black"/>
<path d="M17.148 15.9033C17.0095 15.9833 16.8404 16.0106 16.6739 15.9654L14.4505 15.3697C14.1167 15.2803 13.9188 14.9375 14.0083 14.604C14.0977 14.2704 14.4405 14.0725 14.774 14.1619L16.9974 14.7576C17.331 14.8469 17.5289 15.1898 17.4396 15.5233C17.3946 15.6906 17.2873 15.8229 17.148 15.9033Z" fill="black"/>
<path d="M15.0262 15.1939C14.913 15.3071 14.7568 15.3772 14.5843 15.3767C14.239 15.3767 13.959 15.0967 13.959 14.7514L13.9589 12.2909C13.9589 11.9457 14.2388 11.6658 14.5841 11.6657C14.9294 11.6657 15.2093 11.9456 15.2094 12.2909V14.7516C15.2088 14.9253 15.1393 15.0808 15.0262 15.1939Z" fill="black"/>
</svg>
