<svg width="20" height="20" viewBox="0 0 20 20" fill="none" xmlns="http://www.w3.org/2000/svg">
<path fill-rule="evenodd" clip-rule="evenodd" d="M18.4192 4.18091L14.3332 0.167847C14.2236 0.0602722 14.0762 0 13.9226 0H3.59253C2.38708 0 1.40625 0.980682 1.40625 2.18628V10.5072C1.40625 10.8308 1.66858 11.0931 1.99219 11.0931V11.0931C2.31579 11.0931 2.57812 10.8308 2.57812 10.5072V2.18628C2.57812 1.62689 3.03314 1.17188 3.59253 1.17188H13.3368V3.82675C13.3368 4.57565 13.9461 5.18494 14.695 5.18494H17.4226V10.4141C17.4226 10.7377 17.685 11 18.0086 11V11C18.3322 11 18.5945 10.7377 18.5945 10.4141V4.599C18.5945 4.44168 18.5313 4.29108 18.4192 4.18091ZM16.5758 4.01306L14.5085 1.98273V3.82675C14.5085 3.92944 14.5921 4.01306 14.6948 4.01306H16.5758Z" fill="black"/>
<path d="M1.40625 17.8137C1.40625 19.0192 2.38693 20 3.59253 20H16.4082C17.6137 20 18.5945 19.0193 18.5945 17.8137V16.5859C18.5945 16.2623 18.3322 16 18.0086 16V16C17.685 16 17.4226 16.2623 17.4226 16.5859V17.8137C17.4226 18.3731 16.9676 18.8281 16.4082 18.8281H3.59253C3.03329 18.8281 2.57812 18.3731 2.57812 17.8137V16.5859C2.57812 16.2623 2.31579 16 1.99219 16V16C1.66858 16 1.40625 16.2623 1.40625 16.5859V17.8137Z" fill="black"/>
<path d="M2.0422 12.08C2.10353 12.08 2.15686 12.1027 2.2022 12.148C2.24753 12.1933 2.2702 12.2467 2.2702 12.308V14.772C2.2702 14.8333 2.24753 14.8867 2.2022 14.932C2.15686 14.9773 2.10353 15 2.0422 15H1.6182C1.55686 15 1.50353 14.9773 1.4582 14.932C1.41286 14.8867 1.3902 14.8333 1.3902 14.772V12.308C1.3902 12.2467 1.41286 12.1933 1.4582 12.148C1.50353 12.1027 1.55686 12.08 1.6182 12.08H2.0422Z" fill="black"/>
<path d="M5.18517 12.08C5.2465 12.08 5.29983 12.1027 5.34517 12.148C5.3905 12.1933 5.41317 12.2467 5.41317 12.308V14.772C5.41317 14.8333 5.3905 14.8867 5.34517 14.932C5.29983 14.9773 5.2465 15 5.18517 15H4.88117C4.72917 15 4.61983 14.932 4.55317 14.796L3.86117 13.404C3.86117 13.4013 3.85983 13.4 3.85717 13.4C3.8545 13.4 3.85317 13.4013 3.85317 13.404V14.772C3.85317 14.8333 3.8305 14.8867 3.78517 14.932C3.73983 14.9773 3.6865 15 3.62517 15H3.32117C3.25983 15 3.2065 14.9773 3.16117 14.932C3.11583 14.8867 3.09317 14.8333 3.09317 14.772V12.308C3.09317 12.2467 3.11583 12.1933 3.16117 12.148C3.2065 12.1027 3.25983 12.08 3.32117 12.08H3.62517C3.77717 12.08 3.8865 12.148 3.95317 12.284L4.64517 13.676C4.64517 13.6787 4.6465 13.68 4.64917 13.68C4.65183 13.68 4.65317 13.6787 4.65317 13.676V12.308C4.65317 12.2467 4.67583 12.1933 4.72117 12.148C4.7665 12.1027 4.81983 12.08 4.88117 12.08H5.18517Z" fill="black"/>
<path d="M8.38751 12.08C8.44351 12.08 8.48751 12.1027 8.51951 12.148C8.55418 12.1933 8.56351 12.2427 8.54751 12.296L7.76351 14.784C7.74218 14.848 7.70351 14.9 7.64751 14.94C7.59418 14.98 7.53418 15 7.46751 15H7.08351C7.01418 15 6.95151 14.98 6.89551 14.94C6.84218 14.9 6.80618 14.848 6.78751 14.784L6.00351 12.296C5.98751 12.2427 5.99551 12.1933 6.02751 12.148C6.06218 12.1027 6.10751 12.08 6.16351 12.08H6.55551C6.62218 12.08 6.68084 12.1013 6.73151 12.144C6.78484 12.184 6.81818 12.236 6.83151 12.3L7.26351 14.236C7.26351 14.2387 7.26618 14.24 7.27151 14.24C7.27418 14.24 7.27551 14.2387 7.27551 14.236L7.73151 12.3C7.74751 12.236 7.78084 12.184 7.83151 12.144C7.88484 12.1013 7.94484 12.08 8.01151 12.08H8.38751Z" fill="black"/>
<path d="M9.61754 13.54C9.61754 14.1 9.81087 14.38 10.1975 14.38C10.5842 14.38 10.7775 14.1 10.7775 13.54C10.7775 12.98 10.5842 12.7 10.1975 12.7C9.81087 12.7 9.61754 12.98 9.61754 13.54ZM9.17354 12.44C9.42421 12.1733 9.76554 12.04 10.1975 12.04C10.6295 12.04 10.9709 12.1733 11.2215 12.44C11.4722 12.7067 11.5975 13.0733 11.5975 13.54C11.5975 14.0067 11.4722 14.3733 11.2215 14.64C10.9709 14.9067 10.6295 15.04 10.1975 15.04C9.76554 15.04 9.42421 14.9067 9.17354 14.64C8.92288 14.3733 8.79754 14.0067 8.79754 13.54C8.79754 13.0733 8.92288 12.7067 9.17354 12.44Z" fill="black"/>
<path d="M12.893 12.08C12.9543 12.08 13.0076 12.1027 13.053 12.148C13.0983 12.1933 13.121 12.2467 13.121 12.308V14.772C13.121 14.8333 13.0983 14.8867 13.053 14.932C13.0076 14.9773 12.9543 15 12.893 15H12.469C12.4076 15 12.3543 14.9773 12.309 14.932C12.2636 14.8867 12.241 14.8333 12.241 14.772V12.308C12.241 12.2467 12.2636 12.1933 12.309 12.148C12.3543 12.1027 12.4076 12.08 12.469 12.08H12.893Z" fill="black"/>
<path d="M15.7919 14.34C15.8453 14.324 15.8933 14.332 15.9359 14.364C15.9813 14.396 16.0039 14.44 16.0039 14.496V14.712C16.0039 14.7813 15.9826 14.8427 15.9399 14.896C15.8999 14.9493 15.8466 14.9813 15.7799 14.992C15.5986 15.024 15.4066 15.04 15.2039 15.04C14.7506 15.04 14.3973 14.912 14.1439 14.656C13.8906 14.4 13.7639 14.028 13.7639 13.54C13.7639 13.0627 13.8866 12.6933 14.1319 12.432C14.3773 12.1707 14.7213 12.04 15.1639 12.04C15.3666 12.04 15.5586 12.056 15.7399 12.088C15.8066 12.0987 15.8599 12.1307 15.8999 12.184C15.9426 12.2373 15.9639 12.2987 15.9639 12.368V12.592C15.9639 12.648 15.9413 12.6933 15.8959 12.728C15.8533 12.76 15.8053 12.768 15.7519 12.752C15.5866 12.704 15.4239 12.68 15.2639 12.68C15.0506 12.68 14.8839 12.7533 14.7639 12.9C14.6439 13.044 14.5839 13.2573 14.5839 13.54C14.5839 13.8173 14.6493 14.032 14.7799 14.184C14.9106 14.3333 15.0853 14.408 15.3039 14.408C15.4719 14.408 15.6346 14.3853 15.7919 14.34Z" fill="black"/>
<path d="M18.4609 12.08C18.5223 12.08 18.5756 12.1027 18.6209 12.148C18.6663 12.1933 18.6889 12.2467 18.6889 12.308V12.492C18.6889 12.5533 18.6663 12.6067 18.6209 12.652C18.5756 12.6973 18.5223 12.72 18.4609 12.72H17.6049C17.5809 12.72 17.5689 12.7307 17.5689 12.752V13.164C17.5689 13.188 17.5809 13.2 17.6049 13.2H18.3809C18.4423 13.2 18.4956 13.2227 18.5409 13.268C18.5863 13.3133 18.6089 13.3667 18.6089 13.428V13.572C18.6089 13.6333 18.5863 13.6867 18.5409 13.732C18.4956 13.7773 18.4423 13.8 18.3809 13.8H17.6049C17.5809 13.8 17.5689 13.8107 17.5689 13.832V14.324C17.5689 14.348 17.5809 14.36 17.6049 14.36H18.4609C18.5223 14.36 18.5756 14.3827 18.6209 14.428C18.6663 14.4733 18.6889 14.5267 18.6889 14.588V14.772C18.6889 14.8333 18.6663 14.8867 18.6209 14.932C18.5756 14.9773 18.5223 15 18.4609 15H16.9969C16.9356 15 16.8823 14.9773 16.8369 14.932C16.7916 14.8867 16.7689 14.8333 16.7689 14.772V12.308C16.7689 12.2467 16.7916 12.1933 16.8369 12.148C16.8823 12.1027 16.9356 12.08 16.9969 12.08H18.4609Z" fill="black"/>
</svg>
